<mxfile host="app.diagrams.net" modified="2020-11-19T09:22:18.402Z" agent="5.0 (Macintosh; Intel Mac OS X 10_15_7) AppleWebKit/537.36 (KHTML, like Gecko) Chrome/86.0.4240.193 Safari/537.36" etag="qjBkZ0ylQQbpxzAk7vHQ" version="13.9.7" type="github">
  <diagram name="Page-1" id="13e1069c-82ec-6db2-03f1-153e76fe0fe0">
    <mxGraphModel dx="2596" dy="1522" grid="1" gridSize="10" guides="1" tooltips="1" connect="1" arrows="1" fold="1" page="1" pageScale="1" pageWidth="1100" pageHeight="850" background="#ffffff" math="0" shadow="0">
      <root>
        <mxCell id="0" />
        <mxCell id="1" parent="0" />
        <mxCell id="YmVjbaBAGrZHu8uXbrV_-117" value="Note" style="shape=note;whiteSpace=wrap;html=1;size=0;verticalAlign=top;align=left;spacingTop=-6;rounded=0;shadow=0;comic=0;labelBackgroundColor=none;strokeWidth=1;fontFamily=Verdana;fontSize=12;strokeColor=#007FFF;" vertex="1" parent="1">
          <mxGeometry x="580" y="1290" width="440" height="140" as="geometry" />
        </mxCell>
        <mxCell id="7baba1c4bc27f4b0-43" value="Note" style="shape=note;whiteSpace=wrap;html=1;size=0;verticalAlign=top;align=left;spacingTop=-6;rounded=0;shadow=0;comic=0;labelBackgroundColor=none;strokeWidth=1;fontFamily=Verdana;fontSize=12;strokeColor=#FFD966;" parent="1" vertex="1">
          <mxGeometry x="10" y="1040" width="620" height="200" as="geometry" />
        </mxCell>
        <mxCell id="YmVjbaBAGrZHu8uXbrV_-1" value="&lt;p class=&quot;p1&quot; style=&quot;margin: 0px ; font-stretch: normal ; line-height: normal ; font-family: &amp;#34;andale mono&amp;#34;&quot;&gt;&lt;span class=&quot;s1&quot; style=&quot;background-color: rgb(255 , 255 , 255)&quot;&gt;&lt;font style=&quot;font-size: 12px&quot;&gt;GetFilesAndDirs&lt;/font&gt;&lt;/span&gt;&lt;/p&gt;" style="shape=umlLifeline;perimeter=lifelinePerimeter;whiteSpace=wrap;html=1;container=1;collapsible=0;recursiveResize=0;outlineConnect=0;rounded=1;shadow=0;comic=0;labelBackgroundColor=none;strokeWidth=1;fontFamily=Verdana;fontSize=12;align=center;" vertex="1" parent="1">
          <mxGeometry x="210" y="880" width="100" height="720" as="geometry" />
        </mxCell>
        <mxCell id="YmVjbaBAGrZHu8uXbrV_-2" value="" style="html=1;points=[];perimeter=orthogonalPerimeter;rounded=0;shadow=0;comic=0;labelBackgroundColor=none;strokeWidth=1;fontFamily=Verdana;fontSize=12;align=center;fillColor=#d5e8d4;strokeColor=#82b366;" vertex="1" parent="YmVjbaBAGrZHu8uXbrV_-1">
          <mxGeometry x="45" y="100" width="10" height="50" as="geometry" />
        </mxCell>
        <mxCell id="YmVjbaBAGrZHu8uXbrV_-3" value="&lt;p class=&quot;p1&quot; style=&quot;margin: 0px ; font-stretch: normal ; line-height: normal ; font-family: &amp;#34;andale mono&amp;#34;&quot;&gt;&lt;span class=&quot;s1&quot; style=&quot;background-color: rgb(255 , 255 , 255)&quot;&gt;&lt;font style=&quot;font-size: 12px&quot;&gt;matchBodyList&lt;/font&gt;&lt;/span&gt;&lt;/p&gt;" style="shape=umlLifeline;perimeter=lifelinePerimeter;whiteSpace=wrap;html=1;container=1;collapsible=0;recursiveResize=0;outlineConnect=0;rounded=1;shadow=0;comic=0;labelBackgroundColor=none;strokeWidth=1;fontFamily=Verdana;fontSize=12;align=center;" vertex="1" parent="1">
          <mxGeometry x="370" y="880" width="100" height="730" as="geometry" />
        </mxCell>
        <mxCell id="YmVjbaBAGrZHu8uXbrV_-4" value="" style="html=1;points=[];perimeter=orthogonalPerimeter;rounded=0;shadow=0;comic=0;labelBackgroundColor=none;strokeWidth=1;fontFamily=Verdana;fontSize=12;align=center;fillColor=#d5e8d4;strokeColor=#82b366;" vertex="1" parent="YmVjbaBAGrZHu8uXbrV_-3">
          <mxGeometry x="45" y="160" width="10" height="180" as="geometry" />
        </mxCell>
        <mxCell id="YmVjbaBAGrZHu8uXbrV_-42" value="" style="html=1;points=[];perimeter=orthogonalPerimeter;rounded=0;shadow=0;comic=0;labelBackgroundColor=none;strokeWidth=1;fontFamily=Verdana;fontSize=12;align=center;fillColor=#fff2cc;strokeColor=#d6b656;" vertex="1" parent="YmVjbaBAGrZHu8uXbrV_-3">
          <mxGeometry x="55" y="240" width="10" height="70" as="geometry" />
        </mxCell>
        <mxCell id="YmVjbaBAGrZHu8uXbrV_-5" value="getMatchStr" style="shape=umlLifeline;perimeter=lifelinePerimeter;whiteSpace=wrap;html=1;container=1;collapsible=0;recursiveResize=0;outlineConnect=0;rounded=1;shadow=0;comic=0;labelBackgroundColor=none;strokeWidth=1;fontFamily=Verdana;fontSize=12;align=center;" vertex="1" parent="1">
          <mxGeometry x="510" y="880" width="100" height="720" as="geometry" />
        </mxCell>
        <mxCell id="YmVjbaBAGrZHu8uXbrV_-11" value="" style="html=1;points=[];perimeter=orthogonalPerimeter;rounded=0;shadow=0;comic=0;labelBackgroundColor=none;strokeWidth=1;fontFamily=Verdana;fontSize=12;align=center;fillColor=#d5e8d4;strokeColor=#82b366;" vertex="1" parent="YmVjbaBAGrZHu8uXbrV_-5">
          <mxGeometry x="45" y="190" width="10" height="30" as="geometry" />
        </mxCell>
        <mxCell id="YmVjbaBAGrZHu8uXbrV_-6" value="/index.php" style="shape=umlLifeline;perimeter=lifelinePerimeter;whiteSpace=wrap;html=1;container=1;collapsible=0;recursiveResize=0;outlineConnect=0;rounded=1;shadow=0;comic=0;labelBackgroundColor=none;strokeWidth=1;fontFamily=Verdana;fontSize=12;align=center;" vertex="1" parent="1">
          <mxGeometry x="650" y="880" width="100" height="720" as="geometry" />
        </mxCell>
        <mxCell id="YmVjbaBAGrZHu8uXbrV_-16" value="" style="html=1;points=[];perimeter=orthogonalPerimeter;rounded=0;shadow=0;comic=0;labelBackgroundColor=none;strokeWidth=1;fontFamily=Verdana;fontSize=12;align=center;fillColor=#d5e8d4;strokeColor=#82b366;" vertex="1" parent="YmVjbaBAGrZHu8uXbrV_-6">
          <mxGeometry x="45" y="390" width="10" height="260" as="geometry" />
        </mxCell>
        <mxCell id="YmVjbaBAGrZHu8uXbrV_-7" value="maxMatch" style="shape=umlLifeline;perimeter=lifelinePerimeter;whiteSpace=wrap;html=1;container=1;collapsible=0;recursiveResize=0;outlineConnect=0;rounded=1;shadow=0;comic=0;labelBackgroundColor=none;strokeWidth=1;fontFamily=Verdana;fontSize=12;align=center;" vertex="1" parent="1">
          <mxGeometry x="790" y="880" width="100" height="720" as="geometry" />
        </mxCell>
        <mxCell id="YmVjbaBAGrZHu8uXbrV_-88" value="" style="html=1;points=[];perimeter=orthogonalPerimeter;rounded=0;shadow=0;comic=0;labelBackgroundColor=none;strokeWidth=1;fontFamily=Verdana;fontSize=12;align=center;fillColor=#d5e8d4;strokeColor=#82b366;" vertex="1" parent="YmVjbaBAGrZHu8uXbrV_-7">
          <mxGeometry x="45" y="420" width="10" height="120" as="geometry" />
        </mxCell>
        <mxCell id="YmVjbaBAGrZHu8uXbrV_-89" value="" style="html=1;points=[];perimeter=orthogonalPerimeter;rounded=0;shadow=0;comic=0;labelBackgroundColor=none;strokeWidth=1;fontFamily=Verdana;fontSize=12;align=center;fillColor=#fff2cc;strokeColor=#d6b656;" vertex="1" parent="YmVjbaBAGrZHu8uXbrV_-7">
          <mxGeometry x="55" y="445" width="10" height="70" as="geometry" />
        </mxCell>
        <mxCell id="YmVjbaBAGrZHu8uXbrV_-110" value="&lt;p class=&quot;p1&quot; style=&quot;margin: 0px ; font-stretch: normal ; line-height: normal ; font-family: &amp;#34;andale mono&amp;#34;&quot;&gt;&lt;span style=&quot;background-color: rgb(255 , 255 , 255)&quot;&gt;&lt;span class=&quot;s1&quot;&gt;maxMatch,&lt;/span&gt;&lt;span style=&quot;font-family: &amp;#34;andale mono&amp;#34;&quot;&gt;maxMatchMd5&lt;/span&gt;&lt;/span&gt;&lt;/p&gt;" style="html=1;verticalAlign=bottom;endArrow=block;labelBackgroundColor=none;fontFamily=Verdana;fontSize=12;elbow=vertical;edgeStyle=orthogonalEdgeStyle;curved=1;exitX=1.243;exitY=0.584;exitPerimeter=0;exitDx=0;exitDy=0;" edge="1" parent="YmVjbaBAGrZHu8uXbrV_-7" source="YmVjbaBAGrZHu8uXbrV_-89">
          <mxGeometry x="-0.1088" y="20" relative="1" as="geometry">
            <mxPoint x="-171.84000000000015" y="470.0500000000002" as="sourcePoint" />
            <mxPoint x="50" y="533" as="targetPoint" />
            <Array as="points">
              <mxPoint x="110" y="486" />
              <mxPoint x="110" y="533" />
            </Array>
            <mxPoint as="offset" />
          </mxGeometry>
        </mxCell>
        <mxCell id="YmVjbaBAGrZHu8uXbrV_-8" value="httpReq" style="shape=umlLifeline;perimeter=lifelinePerimeter;whiteSpace=wrap;html=1;container=1;collapsible=0;recursiveResize=0;outlineConnect=0;rounded=1;shadow=0;comic=0;labelBackgroundColor=none;strokeWidth=1;fontFamily=Verdana;fontSize=12;align=center;" vertex="1" parent="1">
          <mxGeometry x="930" y="880" width="100" height="730" as="geometry" />
        </mxCell>
        <mxCell id="YmVjbaBAGrZHu8uXbrV_-120" value="" style="html=1;points=[];perimeter=orthogonalPerimeter;rounded=0;shadow=0;comic=0;labelBackgroundColor=none;strokeWidth=1;fontFamily=Verdana;fontSize=12;align=center;fillColor=#d5e8d4;strokeColor=#82b366;" vertex="1" parent="YmVjbaBAGrZHu8uXbrV_-8">
          <mxGeometry x="45" y="580" width="10" height="50" as="geometry" />
        </mxCell>
        <mxCell id="YmVjbaBAGrZHu8uXbrV_-9" value="main" style="shape=umlLifeline;perimeter=lifelinePerimeter;whiteSpace=wrap;html=1;container=1;collapsible=0;recursiveResize=0;outlineConnect=0;rounded=1;shadow=0;comic=0;labelBackgroundColor=none;strokeWidth=1;fontFamily=Verdana;fontSize=12;align=center;" vertex="1" parent="1">
          <mxGeometry x="70" y="880" width="100" height="710" as="geometry" />
        </mxCell>
        <mxCell id="YmVjbaBAGrZHu8uXbrV_-10" value="" style="html=1;points=[];perimeter=orthogonalPerimeter;rounded=0;shadow=0;comic=0;labelBackgroundColor=none;strokeWidth=1;fontFamily=Verdana;fontSize=12;align=center;fillColor=#d5e8d4;strokeColor=#82b366;" vertex="1" parent="YmVjbaBAGrZHu8uXbrV_-9">
          <mxGeometry x="45" y="100" width="10" height="560" as="geometry" />
        </mxCell>
        <mxCell id="YmVjbaBAGrZHu8uXbrV_-12" value="&lt;p class=&quot;p1&quot; style=&quot;margin: 0px ; font-stretch: normal ; line-height: normal ; font-family: &amp;#34;andale mono&amp;#34;&quot;&gt;&lt;span style=&quot;background-color: rgb(255 , 255 , 255)&quot;&gt;&lt;span class=&quot;s1&quot; style=&quot;font-size: 12px&quot;&gt;bodyList,&lt;/span&gt;&lt;span style=&quot;font-family: &amp;#34;andale mono&amp;#34;&quot;&gt;checkUnq&lt;/span&gt;&lt;/span&gt;&lt;/p&gt;" style="html=1;verticalAlign=bottom;endArrow=block;labelBackgroundColor=none;fontFamily=Verdana;fontSize=12;edgeStyle=elbowEdgeStyle;elbow=vertical;" edge="1" parent="1" source="YmVjbaBAGrZHu8uXbrV_-4" target="YmVjbaBAGrZHu8uXbrV_-9">
          <mxGeometry relative="1" as="geometry">
            <mxPoint x="480" y="1020" as="sourcePoint" />
            <Array as="points">
              <mxPoint x="350" y="1220" />
              <mxPoint x="310" y="1200" />
              <mxPoint x="360" y="1110" />
              <mxPoint x="380" y="1100" />
              <mxPoint x="130" y="1120" />
              <mxPoint x="430" y="1020" />
            </Array>
          </mxGeometry>
        </mxCell>
        <mxCell id="YmVjbaBAGrZHu8uXbrV_-17" value="bodyList" style="html=1;verticalAlign=bottom;endArrow=block;entryX=0;entryY=0;labelBackgroundColor=none;fontFamily=Verdana;fontSize=12;" edge="1" parent="1" source="YmVjbaBAGrZHu8uXbrV_-10" target="YmVjbaBAGrZHu8uXbrV_-16">
          <mxGeometry relative="1" as="geometry">
            <mxPoint x="480" y="1220" as="sourcePoint" />
          </mxGeometry>
        </mxCell>
        <mxCell id="YmVjbaBAGrZHu8uXbrV_-24" value="&lt;p class=&quot;p1&quot; style=&quot;margin: 0px ; font-stretch: normal ; line-height: normal ; font-family: &amp;#34;andale mono&amp;#34;&quot;&gt;&lt;span class=&quot;s1&quot; style=&quot;background-color: rgb(255 , 255 , 255)&quot;&gt;&lt;font style=&quot;font-size: 12px&quot;&gt;&quot;mdl&quot;&lt;/font&gt;&lt;/span&gt;&lt;/p&gt;" style="html=1;verticalAlign=bottom;endArrow=block;entryX=0;entryY=0;labelBackgroundColor=none;fontFamily=Verdana;fontSize=12;edgeStyle=elbowEdgeStyle;elbow=vertical;" edge="1" parent="1" source="YmVjbaBAGrZHu8uXbrV_-10" target="YmVjbaBAGrZHu8uXbrV_-2">
          <mxGeometry relative="1" as="geometry">
            <mxPoint x="190" y="990" as="sourcePoint" />
          </mxGeometry>
        </mxCell>
        <mxCell id="YmVjbaBAGrZHu8uXbrV_-25" value="files" style="html=1;verticalAlign=bottom;endArrow=block;entryX=1.094;entryY=0.102;labelBackgroundColor=none;fontFamily=Verdana;fontSize=12;edgeStyle=elbowEdgeStyle;elbow=vertical;entryDx=0;entryDy=0;entryPerimeter=0;" edge="1" parent="1" source="YmVjbaBAGrZHu8uXbrV_-2" target="YmVjbaBAGrZHu8uXbrV_-10">
          <mxGeometry relative="1" as="geometry">
            <mxPoint x="340" y="1000" as="sourcePoint" />
          </mxGeometry>
        </mxCell>
        <mxCell id="YmVjbaBAGrZHu8uXbrV_-38" value="&lt;p class=&quot;p1&quot; style=&quot;margin: 0px ; font-stretch: normal ; line-height: normal ; font-family: &amp;#34;andale mono&amp;#34;&quot;&gt;&lt;span style=&quot;background-color: rgb(255 , 255 , 255)&quot;&gt;filename, *gin.Engine&lt;/span&gt;&lt;/p&gt;" style="html=1;verticalAlign=bottom;endArrow=block;labelBackgroundColor=none;fontFamily=Verdana;fontSize=12;edgeStyle=elbowEdgeStyle;elbow=vertical;" edge="1" parent="1" target="YmVjbaBAGrZHu8uXbrV_-3">
          <mxGeometry relative="1" as="geometry">
            <mxPoint x="120" y="1060.5841176470587" as="sourcePoint" />
            <mxPoint x="250" y="1060.29" as="targetPoint" />
            <Array as="points">
              <mxPoint x="120" y="1060" />
            </Array>
          </mxGeometry>
        </mxCell>
        <mxCell id="YmVjbaBAGrZHu8uXbrV_-39" value="对所有的body path进行排序，然后拼接成字符串" style="shape=note;whiteSpace=wrap;html=1;size=14;verticalAlign=top;align=left;spacingTop=-6;rounded=0;shadow=0;comic=0;labelBackgroundColor=none;strokeWidth=1;fontFamily=Verdana;fontSize=12" vertex="1" parent="1">
          <mxGeometry x="510" y="800" width="100" height="55" as="geometry" />
        </mxCell>
        <mxCell id="YmVjbaBAGrZHu8uXbrV_-40" value="Matcher.Body" style="html=1;verticalAlign=bottom;endArrow=block;labelBackgroundColor=none;fontFamily=Verdana;fontSize=12;" edge="1" parent="1" target="YmVjbaBAGrZHu8uXbrV_-11">
          <mxGeometry relative="1" as="geometry">
            <mxPoint x="420" y="1070" as="sourcePoint" />
            <mxPoint x="550" y="1070" as="targetPoint" />
          </mxGeometry>
        </mxCell>
        <mxCell id="YmVjbaBAGrZHu8uXbrV_-41" value="matchStr" style="html=1;verticalAlign=bottom;endArrow=block;labelBackgroundColor=none;fontFamily=Verdana;fontSize=12;edgeStyle=elbowEdgeStyle;elbow=vertical;" edge="1" parent="1" target="YmVjbaBAGrZHu8uXbrV_-3">
          <mxGeometry relative="1" as="geometry">
            <mxPoint x="560" y="1100" as="sourcePoint" />
            <Array as="points">
              <mxPoint x="505" y="1100" />
              <mxPoint x="525" y="1090" />
              <mxPoint x="275" y="1110" />
              <mxPoint x="575" y="1010" />
            </Array>
            <mxPoint x="450" y="1100" as="targetPoint" />
          </mxGeometry>
        </mxCell>
        <mxCell id="YmVjbaBAGrZHu8uXbrV_-43" value="对每个macher进行匹配&lt;br&gt;全部匹配就返回true" style="html=1;verticalAlign=bottom;endArrow=block;labelBackgroundColor=none;fontFamily=Verdana;fontSize=12;elbow=vertical;edgeStyle=orthogonalEdgeStyle;curved=1;entryX=1;entryY=0.286;entryPerimeter=0;exitX=1.038;exitY=0.345;exitPerimeter=0;" edge="1" parent="1">
          <mxGeometry relative="1" as="geometry">
            <mxPoint x="842.6933333333335" y="1320" as="sourcePoint" />
            <mxPoint x="847.6933333333335" y="1358.3333333333335" as="targetPoint" />
            <Array as="points">
              <mxPoint x="897.36" y="1320" />
              <mxPoint x="897.36" y="1358" />
            </Array>
          </mxGeometry>
        </mxCell>
        <mxCell id="YmVjbaBAGrZHu8uXbrV_-76" value="确保md5值是唯一的，并使用md5值注册httpHandler" style="html=1;verticalAlign=bottom;endArrow=block;labelBackgroundColor=none;fontFamily=Verdana;fontSize=12;elbow=vertical;edgeStyle=orthogonalEdgeStyle;curved=1;" edge="1" parent="1">
          <mxGeometry relative="1" as="geometry">
            <mxPoint x="428" y="1170" as="sourcePoint" />
            <mxPoint x="422.5" y="1199.1400000000003" as="targetPoint" />
            <Array as="points">
              <mxPoint x="428" y="1170" />
              <mxPoint x="478" y="1170" />
              <mxPoint x="478" y="1199" />
            </Array>
          </mxGeometry>
        </mxCell>
        <mxCell id="YmVjbaBAGrZHu8uXbrV_-84" value="for loop:&lt;br&gt;len(files) times" style="shape=note;whiteSpace=wrap;html=1;size=10;verticalAlign=top;align=left;spacingTop=-6;rounded=0;shadow=0;comic=0;labelBackgroundColor=none;strokeWidth=1;fontFamily=Verdana;fontSize=12;direction=south;strokeColor=#FFD966;" vertex="1" parent="1">
          <mxGeometry x="10" y="1040" width="100" height="50" as="geometry" />
        </mxCell>
        <mxCell id="YmVjbaBAGrZHu8uXbrV_-87" value="match-body" style="html=1;verticalAlign=bottom;endArrow=block;labelBackgroundColor=none;fontFamily=Verdana;fontSize=12;" edge="1" parent="1">
          <mxGeometry relative="1" as="geometry">
            <mxPoint x="700" y="1310" as="sourcePoint" />
            <mxPoint x="840" y="1310" as="targetPoint" />
          </mxGeometry>
        </mxCell>
        <mxCell id="YmVjbaBAGrZHu8uXbrV_-90" value="获取matchStr的md5值" style="html=1;verticalAlign=bottom;endArrow=block;labelBackgroundColor=none;fontFamily=Verdana;fontSize=12;elbow=vertical;edgeStyle=orthogonalEdgeStyle;curved=1;exitX=1.038;exitY=0.345;exitPerimeter=0;" edge="1" parent="1">
          <mxGeometry relative="1" as="geometry">
            <mxPoint x="432.6633333333334" y="1130" as="sourcePoint" />
            <mxPoint x="433" y="1160" as="targetPoint" />
            <Array as="points">
              <mxPoint x="487" y="1130" />
              <mxPoint x="487" y="1160" />
              <mxPoint x="433" y="1160" />
            </Array>
          </mxGeometry>
        </mxCell>
        <mxCell id="YmVjbaBAGrZHu8uXbrV_-114" value="&lt;p class=&quot;p1&quot; style=&quot;margin: 0px ; font-stretch: normal ; line-height: normal ; font-family: &amp;#34;andale mono&amp;#34;&quot;&gt;&lt;span style=&quot;background-color: rgb(255 , 255 , 255)&quot;&gt;maxMatchMd5&lt;/span&gt;&lt;/p&gt;" style="html=1;verticalAlign=bottom;endArrow=block;labelBackgroundColor=none;fontFamily=Verdana;fontSize=12;edgeStyle=elbowEdgeStyle;elbow=vertical;" edge="1" parent="1">
          <mxGeometry relative="1" as="geometry">
            <mxPoint x="835.9300000000001" y="1440" as="sourcePoint" />
            <Array as="points">
              <mxPoint x="770.9300000000001" y="1440" />
              <mxPoint x="730.9300000000001" y="1420" />
              <mxPoint x="780.9300000000001" y="1330" />
              <mxPoint x="800.9300000000001" y="1320" />
              <mxPoint x="550.9300000000001" y="1340" />
              <mxPoint x="850.9300000000001" y="1240" />
            </Array>
            <mxPoint x="700" y="1440" as="targetPoint" />
          </mxGeometry>
        </mxCell>
        <mxCell id="YmVjbaBAGrZHu8uXbrV_-118" value="for loop:&lt;br&gt;len(bodyList) times" style="shape=note;whiteSpace=wrap;html=1;size=10;verticalAlign=top;align=left;spacingTop=-6;rounded=0;shadow=0;comic=0;labelBackgroundColor=none;strokeWidth=1;fontFamily=Verdana;fontSize=12;direction=south;strokeColor=#007FFF;" vertex="1" parent="1">
          <mxGeometry x="580" y="1290" width="100" height="50" as="geometry" />
        </mxCell>
        <mxCell id="YmVjbaBAGrZHu8uXbrV_-119" value="&lt;span style=&quot;background-color: rgb(255 , 255 , 255)&quot;&gt;maxMatchMd5&lt;br&gt;&lt;/span&gt;" style="html=1;verticalAlign=bottom;endArrow=block;labelBackgroundColor=none;fontFamily=Verdana;fontSize=12;edgeStyle=elbowEdgeStyle;elbow=vertical;" edge="1" parent="1" target="YmVjbaBAGrZHu8uXbrV_-8">
          <mxGeometry relative="1" as="geometry">
            <mxPoint x="700" y="1470.1428571428573" as="sourcePoint" />
            <mxPoint x="830" y="1470" as="targetPoint" />
          </mxGeometry>
        </mxCell>
        <mxCell id="YmVjbaBAGrZHu8uXbrV_-121" value="&lt;span style=&quot;background-color: rgb(255 , 255 , 255)&quot;&gt;response body&lt;/span&gt;" style="html=1;verticalAlign=bottom;endArrow=block;labelBackgroundColor=none;fontFamily=Verdana;fontSize=12;edgeStyle=elbowEdgeStyle;elbow=vertical;" edge="1" parent="1">
          <mxGeometry relative="1" as="geometry">
            <mxPoint x="975.9300000000001" y="1510" as="sourcePoint" />
            <Array as="points">
              <mxPoint x="910.9300000000001" y="1510" />
              <mxPoint x="870.9300000000001" y="1490" />
              <mxPoint x="920.9300000000001" y="1400" />
              <mxPoint x="940.9300000000001" y="1390" />
              <mxPoint x="690.9300000000001" y="1410" />
              <mxPoint x="990.9300000000001" y="1310" />
            </Array>
            <mxPoint x="700" y="1510" as="targetPoint" />
          </mxGeometry>
        </mxCell>
        <mxCell id="YmVjbaBAGrZHu8uXbrV_-122" value="&lt;p class=&quot;p1&quot; style=&quot;margin: 0px ; font-stretch: normal ; line-height: normal ; font-family: &amp;#34;andale mono&amp;#34;&quot;&gt;&lt;span style=&quot;background-color: rgb(255 , 255 , 255)&quot;&gt;response&lt;/span&gt;&lt;/p&gt;" style="html=1;verticalAlign=bottom;endArrow=block;labelBackgroundColor=none;fontFamily=Verdana;fontSize=12;edgeStyle=elbowEdgeStyle;elbow=vertical;" edge="1" parent="1" source="YmVjbaBAGrZHu8uXbrV_-6">
          <mxGeometry relative="1" as="geometry">
            <mxPoint x="415.93" y="1530" as="sourcePoint" />
            <Array as="points">
              <mxPoint x="350.93" y="1530" />
              <mxPoint x="310.93" y="1510" />
              <mxPoint x="360.93" y="1420" />
              <mxPoint x="380.93" y="1410" />
              <mxPoint x="130.93" y="1430" />
              <mxPoint x="430.93" y="1330" />
            </Array>
            <mxPoint x="120.00142857142845" y="1530" as="targetPoint" />
          </mxGeometry>
        </mxCell>
      </root>
    </mxGraphModel>
  </diagram>
</mxfile>
